HIERARCHY
ROOT hip
{
	OFFSET 0.000000 0.000000 0.000000
	CHANNELS 6 Xposition Yposition Zposition Zrotation Yrotation Xrotation 
	JOINT lhipjoint
	{
		OFFSET 0.000000 0.000000 0.000000
		CHANNELS 3 Zrotation Yrotation Xrotation
		JOINT lfemur
		{
			OFFSET 1.363060 -1.794630 0.839290
			CHANNELS 3 Zrotation Yrotation Xrotation
			JOINT ltibia
			{
				OFFSET 2.448110 -6.726130 0.000000
				CHANNELS 3 Zrotation Yrotation Xrotation
				JOINT lfoot
				{
					OFFSET 2.562200 -7.039590 0.000000
					CHANNELS 3 Zrotation Yrotation Xrotation
					JOINT ltoes
					{
						OFFSET 0.157640 -0.433110 2.322550
						CHANNELS 3 Zrotation Yrotation Xrotation
						End Site
						{
							OFFSET 0.000000 0.000000 0.000000
						}
					}
				}
			}
		}
	}
	JOINT rhipjoint
	{
		OFFSET 0.000000 0.000000 0.000000
		CHANNELS 3 Zrotation Yrotation Xrotation
		JOINT rfemur
		{
			OFFSET -1.305520 -1.794630 0.839290
			CHANNELS 3 Zrotation Yrotation Xrotation
			JOINT rtibia
			{
				OFFSET -2.542530 -6.985550 0.000000
				CHANNELS 3 Zrotation Yrotation Xrotation
				JOINT rfoot
				{
					OFFSET -2.568260 -7.056230 0.000000
					CHANNELS 3 Zrotation Yrotation Xrotation
					JOINT rtoes
					{
						OFFSET -0.164730 -0.452590 2.363150
						CHANNELS 3 Zrotation Yrotation Xrotation
						End Site
						{
							OFFSET 0.000000 0.000000 0.000000
						}
					}
				}
			}
		}
	}
	JOINT lowerback
	{
		OFFSET 0.000000 0.000000 0.000000
		CHANNELS 3 Zrotation Yrotation Xrotation
		JOINT upperback
		{
			OFFSET 0.028270 2.035590 -0.193380
			CHANNELS 3 Zrotation Yrotation Xrotation
			JOINT thorax
			{
				OFFSET 0.056720 2.048850 -0.042750
				CHANNELS 3 Zrotation Yrotation Xrotation
				JOINT lowerneck
				{
					OFFSET 0.000000 0.000000 0.000000
					CHANNELS 3 Zrotation Yrotation Xrotation
					JOINT upperneck
					{
						OFFSET -0.054170 1.746240 0.172020
						CHANNELS 3 Zrotation Yrotation Xrotation
						JOINT head
						{
							OFFSET 0.104070 1.761360 -0.123970
							CHANNELS 3 Zrotation Yrotation Xrotation
							End Site
							{
								OFFSET 0.000000 0.000000 0.000000
							}
						}
					}
				}
				JOINT lclavicle
				{
					OFFSET 0.000000 0.000000 0.000000
					CHANNELS 3 Zrotation Yrotation Xrotation
					JOINT lhumerus
					{
						OFFSET 3.362410 1.200890 -0.311210
						CHANNELS 3 Zrotation Yrotation Xrotation
						JOINT lradius
						{
							OFFSET 4.983000 -0.000000 -0.000000
							CHANNELS 3 Zrotation Yrotation Xrotation
							JOINT lwrist
							{
								OFFSET 3.483560 -0.000000 -0.000000
								CHANNELS 3 Zrotation Yrotation Xrotation
								JOINT lhand
								{
									OFFSET 0.000000 0.000000 0.000000
									CHANNELS 3 Zrotation Yrotation Xrotation
									JOINT lfingers
									{
										OFFSET 0.715260 -0.000000 -0.000000
										CHANNELS 3 Zrotation Yrotation Xrotation
										End Site
										{
											OFFSET 0.000000 0.000000 0.000000
										}
									}
								}
								JOINT lthumb
								{
									OFFSET 0.000000 0.000000 0.000000
									CHANNELS 3 Zrotation Yrotation Xrotation
									End Site
									{
										OFFSET 0.000000 0.000000 0.000000
									}
								}
							}
						}
					}
				}
				JOINT rclavicle
				{
					OFFSET 0.000000 0.000000 0.000000
					CHANNELS 3 Zrotation Yrotation Xrotation
					JOINT rhumerus
					{
						OFFSET -3.136600 1.374050 -0.404650
						CHANNELS 3 Zrotation Yrotation Xrotation
						JOINT rradius
						{
							OFFSET -5.241900 -0.000000 -0.000000
							CHANNELS 3 Zrotation Yrotation Xrotation
							JOINT rwrist
							{
								OFFSET -3.444170 -0.000000 -0.000000
								CHANNELS 3 Zrotation Yrotation Xrotation
								JOINT rhand
								{
									OFFSET 0.000000 0.000000 0.000000
									CHANNELS 3 Zrotation Yrotation Xrotation
									JOINT rfingers
									{
										OFFSET -0.622530 -0.000000 -0.000000
										CHANNELS 3 Zrotation Yrotation Xrotation
										End Site
										{
											OFFSET 0.000000 0.000000 0.000000
										}
									}
								}
								JOINT rthumb
								{
									OFFSET 0.000000 0.000000 0.000000
									CHANNELS 3 Zrotation Yrotation Xrotation
									End Site
									{
										OFFSET 0.000000 0.000000 0.000000
									}
								}
							}
						}
					}
				}
			}
		}
	}
}
MOTION
Frames: 12
Frame Time: 0.008333
0.108300 17.363829 3.792829 168.755097 19.497449 166.729139 -7.464374 -2.524445 -0.046680 0.420418 -25.110494 -88.427938 28.714787 13.246828 118.444902 0.297844 -0.635872 -4.713652 0.758600 -5.562400 -15.519900 3.531151 6.275758 -5.194448 4.711202 5.835955 6.922166 -2.627892 -10.371721 21.999476 0.023831 14.136495 -1.058513 -0.593000 4.930100 -13.709300 23.182720 -6.310938 43.048126 2.405998 9.976375 -0.002716 -4.735860 7.721089 9.260720 2.484793 1.901919 -18.729645 -17.300486 5.603892 11.237214 -8.886400 1.026900 6.083000 -5.818737 -1.102462 2.163996 -73.637859 6.987493 48.891721 10.102261 -22.722287 -1.996374 0.453649 0.714550 -0.250786 7.452717 -13.940742 -1.781100 -7.125000 0.000000 0.000000 -13.887000 15.479900 9.978400 11.871488 2.401222 7.112004 -30.338413 86.002111 -68.337598 -156.783345 34.423120 -111.986898 0.257308 -2.759502 -26.503142 -14.167896 12.209305 -3.462300 7.125000 0.000000 0.000000 9.709900 -14.801700 7.010100 
0.097640 17.351915 3.800353 168.472808 19.360948 166.534672 -7.475968 -2.548984 -0.053617 0.368572 -25.224353 -88.830920 28.650399 13.274396 118.216088 0.289706 -0.522932 -4.631369 0.708200 -5.378400 -14.991100 3.585339 6.289261 -5.190891 4.399903 6.125783 6.949849 -2.659729 -10.511431 22.423771 0.018455 13.993789 -1.507857 -0.634400 5.096100 -14.182800 23.101281 -6.362077 43.327451 2.390175 9.995192 0.015716 -4.791959 7.758023 9.181260 2.529665 1.896454 -18.597962 -17.213502 5.555746 11.080266 -8.868400 1.028000 5.987800 -5.837696 -1.141737 2.220128 -73.341609 6.997260 48.311001 10.285605 -22.932323 -2.057736 0.438332 0.726590 -0.879981 7.544996 -13.827623 -1.794000 -7.125000 0.000000 0.000000 -13.825200 15.577800 9.901100 11.878824 2.461292 6.945002 -28.813255 85.862350 -66.857679 -156.760021 34.468924 -111.964581 0.257898 -2.749559 -26.415643 -14.154196 12.107646 -3.436000 7.125000 0.000000 0.000000 9.713900 -14.913300 6.989600 
0.088503 17.334896 3.806086 168.213937 19.218340 166.334142 -7.485923 -2.565698 -0.061954 0.274787 -25.322082 -89.139083 28.584136 13.304263 117.978305 0.283187 -0.435361 -4.620866 0.730000 -5.458900 -15.222200 3.637856 6.300938 -5.186167 4.119968 6.415074 6.972423 -2.699576 -10.668093 22.904831 0.011615 13.865344 -2.002867 -0.683700 5.286500 -14.727500 22.990007 -6.405124 43.583257 2.382407 10.012646 0.031855 -4.803719 7.780116 9.131301 2.587693 1.884969 -18.479660 -17.169414 5.496265 10.934408 -8.875600 1.019700 5.895700 -5.849808 -1.161895 2.245946 -73.070497 6.983813 47.635566 10.384498 -23.056341 -2.101187 0.428000 0.734708 -1.322537 7.609625 -13.772225 -1.805600 -7.125000 0.000000 0.000000 -13.781000 15.623500 9.853500 11.896203 2.482539 6.901564 -28.461112 85.700743 -66.541621 -156.700724 34.567704 -111.909147 0.247016 -2.737608 -26.313781 -14.073190 12.091057 -3.406800 7.125000 0.000000 0.000000 9.769000 -14.952200 7.022200 
0.080531 17.317517 3.810386 168.000343 19.058462 166.162066 -7.492477 -2.581314 -0.072417 0.187521 -25.427778 -89.441477 28.526088 13.329887 117.770068 0.277303 -0.356068 -4.614785 0.735500 -5.479200 -15.280500 3.683943 6.300391 -5.174687 3.878067 6.678445 6.925792 -2.750919 -10.844185 23.454535 0.004942 13.758398 -2.455129 -0.707800 5.376900 -14.986900 22.924130 -6.451646 43.781046 2.371573 10.015289 0.047872 -4.843661 7.804692 9.126658 2.646321 1.875485 -18.405161 -17.085187 5.440996 10.792752 -8.863500 1.016700 5.807100 -5.867042 -1.166853 2.260069 -72.783720 6.900571 46.891018 10.416072 -23.105511 -2.128775 0.422228 0.736629 -1.582901 7.608659 -13.756308 -1.804000 -7.125000 0.000000 0.000000 -13.780800 15.639000 9.848500 11.912536 2.485989 6.903345 -28.559268 85.524374 -66.742804 -156.634041 34.686408 -111.843739 0.232383 -2.720886 -26.161803 -13.927637 12.055907 -3.355200 7.125000 0.000000 0.000000 9.867500 -15.021100 7.080400 
0.073365 17.301841 3.813969 167.802756 18.881642 166.009050 -7.496695 -2.593041 -0.084252 0.089416 -25.535673 -89.724394 28.471241 13.353917 117.572998 0.273727 -0.314603 -4.584585 0.724900 -5.440200 -15.168500 3.730691 6.302719 -5.165129 3.647638 6.934118 6.883186 -2.804174 -11.019075 24.004119 -0.004110 13.645558 -2.933009 -0.739600 5.493800 -15.322600 22.834678 -6.493789 43.926388 2.365703 10.000528 0.064706 -4.849568 7.812295 9.224215 2.671883 1.868565 -18.445641 -16.995300 5.393496 10.662917 -8.839200 1.011300 5.733700 -5.887041 -1.129492 2.215963 -72.505147 6.693302 46.090029 10.336813 -23.036604 -2.129717 0.425781 0.732356 -1.647458 7.521394 -13.854923 -1.792000 -7.125000 0.000000 0.000000 -13.837700 15.552500 9.918400 11.939972 2.406520 7.143006 -30.963268 85.275343 -69.181364 -156.601907 34.771068 -111.798970 0.215235 -2.703796 -25.998425 -13.807489 12.047412 -3.315900 7.125000 0.000000 0.000000 9.949800 -15.062000 7.132400 
0.068079 17.285448 3.816298 167.614135 18.687541 165.859973 -7.500735 -2.604618 -0.095289 -0.023730 -25.641093 -89.978889 28.426954 13.373261 117.411843 0.271999 -0.297059 -4.610534 0.705900 -5.369900 -14.966800 3.777848 6.308295 -5.157329 3.419137 7.134243 6.854630 -2.852075 -11.183039 24.514437 -0.015014 13.536019 -3.410063 -0.783000 5.649200 -15.769800 22.747816 -6.526485 44.037054 2.358004 9.982053 0.080679 -4.867275 7.818467 9.343642 2.722506 1.849383 -18.527918 -16.922628 5.334183 10.567374 -8.828200 0.996700 5.681100 -5.911887 -1.082305 2.166084 -72.168600 6.435100 45.405460 10.204884 -22.902915 -2.115024 0.432103 0.724947 -1.596745 7.423976 -13.986828 -1.780400 -7.125000 0.000000 0.000000 -13.900900 15.436500 10.002400 11.968849 2.317872 7.403604 -33.531268 85.029138 -71.840162 -156.531160 34.909950 -111.722475 0.193335 -2.684012 -25.798862 -13.628546 12.055416 -3.263200 7.125000 0.000000 0.000000 10.073100 -15.095400 7.216300 
0.063332 17.270758 3.816656 167.461245 18.490712 165.717015 -7.502075 -2.612723 -0.105352 -0.136829 -25.748553 -90.185810 28.387081 13.390783 117.266635 0.274038 -0.337529 -4.642755 0.681400 -5.277800 -14.702700 3.822873 6.317705 -5.152444 3.229751 7.314146 6.865396 -2.896121 -11.332575 24.976906 -0.028810 13.414423 -3.845803 -0.815200 5.761600 -16.094200 22.675566 -6.572043 44.125678 2.352156 9.944034 0.091964 -4.884705 7.811771 9.534081 2.728139 1.832572 -18.695611 -16.820254 5.281221 10.489575 -8.790400 0.983900 5.637500 -5.942160 -0.999555 2.063224 -71.831498 6.145821 44.746696 10.048382 -22.741897 -2.094363 0.443452 0.715963 -1.415723 7.305353 -14.186972 -1.769900 -7.125000 0.000000 0.000000 -13.977100 15.255700 10.116900 12.003556 2.152200 7.879407 -37.973919 84.713816 -76.298151 -156.471853 35.038774 -111.649417 0.172249 -2.664581 -25.622762 -13.470498 12.083364 -3.220500 7.125000 0.000000 0.000000 10.182300 -15.106400 7.294700 
0.060913 17.256246 3.813969 167.324751 18.288818 165.591894 -7.502204 -2.617557 -0.115681 -0.253080 -25.870079 -90.360327 28.355697 13.404356 117.151988 0.277126 -0.395796 -4.608906 0.608800 -4.994100 -13.891700 3.864741 6.332546 -5.152707 3.069947 7.480512 6.913012 -2.935828 -11.466612 25.389797 -0.045917 13.269858 -4.275245 -0.844800 5.862700 -16.386400 22.576613 -6.616575 44.159503 2.355275 9.888388 0.106401 -4.845039 7.785487 9.789530 2.662230 1.819295 -18.937127 -16.719063 5.248823 10.445963 -8.732800 0.973000 5.615800 -5.971289 -0.896984 1.927509 -71.572267 5.814687 44.034422 9.819913 -22.505653 -2.056737 0.457778 0.707049 -1.017324 7.227400 -14.416546 -1.772700 -7.125000 0.000000 0.000000 -14.025100 15.042300 10.220300 12.040407 1.932382 8.489120 -43.290352 84.346136 -81.572259 -156.422173 35.165529 -111.572607 0.155809 -2.641124 -25.432962 -13.299706 12.070096 -3.167000 7.125000 0.000000 0.000000 10.296300 -15.161400 7.366800 
0.060286 17.243705 3.810386 167.231989 18.066003 165.496753 -7.497630 -2.621837 -0.126402 -0.352675 -26.010961 -90.499064 28.324085 13.417922 117.037614 0.281165 -0.473975 -4.492274 0.490400 -4.490300 -12.460400 3.901863 6.348147 -5.154660 2.949941 7.580210 6.965278 -2.967688 -11.580640 25.734871 -0.065302 13.117522 -4.710103 -0.897800 6.038900 -16.897400 22.518115 -6.665045 44.141811 2.354373 9.819138 0.120584 -4.842628 7.759741 10.147962 2.635519 1.795116 -19.308019 -16.649791 5.198680 10.407216 -8.697900 0.946200 5.612400 -6.005614 -0.755192 1.739394 -71.317490 5.427611 43.246087 9.559958 -22.236290 -2.014273 0.477943 0.695414 -0.265352 7.160792 -14.708882 -1.784600 -7.125000 0.000000 0.000000 -14.064000 14.766700 10.336200 12.081457 1.637544 9.297751 -49.757770 83.810837 -87.984297 -156.398162 35.267467 -111.514829 0.140333 -2.618789 -25.199424 -13.196398 12.087119 -3.139200 7.125000 0.000000 0.000000 10.363000 -15.177200 7.412500 
0.062167 17.232418 3.804205 167.176262 17.794074 165.402992 -7.491517 -2.625352 -0.135688 -0.485083 -26.176393 -90.576928 28.297755 13.429700 116.939681 0.283962 -0.526376 -4.435054 0.413100 -4.125900 -11.431000 3.937643 6.370839 -5.161718 2.865494 7.635863 7.089237 -2.990044 -11.678239 26.014123 -0.087580 12.933212 -5.076264 -0.914900 6.094600 -17.059200 22.487534 -6.744093 44.093016 2.355250 9.712155 0.131510 -4.855407 7.718933 10.556554 2.618858 1.784239 -19.757728 -16.615790 5.170600 10.372670 -8.678100 0.922200 5.628500 -6.043632 -0.592756 1.516397 -71.067549 5.008037 42.521349 9.300423 -21.958855 -1.969329 0.493127 0.686065 0.472670 7.154068 -14.927771 -1.805500 -7.125000 0.000000 0.000000 -14.063400 14.556600 10.401000 12.120146 1.287034 10.237186 -56.359987 83.147278 -94.469702 -156.381312 35.370345 -111.451931 0.131951 -2.593373 -24.974623 -13.109035 12.082043 -3.112900 7.125000 0.000000 0.000000 10.414300 -15.214000 7.442200 
0.065840 17.224983 3.796591 167.148528 17.528865 165.335364 -7.484232 -2.624302 -0.143367 -0.619271 -26.330616 -90.610794 28.269685 13.442610 116.834638 0.280361 -0.472821 -4.488697 0.369300 -3.903600 -10.805600 3.966411 6.394997 -5.170731 2.825652 7.665387 7.228145 -3.006596 -11.755424 26.230492 -0.112200 12.725209 -5.445077 -0.947300 6.198600 -17.361900 22.460438 -6.813300 44.014142 2.365578 9.614020 0.137444 -4.829104 7.668462 10.984211 2.521847 1.768034 -20.249486 -16.607030 5.141691 10.346748 -8.649900 0.887900 5.649300 -6.079126 -0.426031 1.264686 -70.863320 4.621837 41.901645 9.071918 -21.717965 -1.931313 0.508466 0.679760 1.216180 7.187904 -15.153276 -1.838500 -7.125000 0.000000 0.000000 -14.036000 14.334400 10.448100 12.154120 0.880832 11.290051 -62.640576 82.365837 -100.612003 -156.351784 35.509824 -111.361921 0.128203 -2.558304 -24.675162 -12.983393 12.043093 -3.071000 7.125000 0.000000 0.000000 10.484600 -15.293800 7.475900 
0.072200 17.217369 3.787902 167.135203 17.254930 165.286672 -7.476409 -2.624272 -0.149523 -0.778946 -26.450015 -90.620124 28.245280 13.454663 116.740219 0.272877 -0.352058 -4.605369 0.357100 -3.838800 -10.623700 3.992855 6.419048 -5.180418 2.806569 7.669371 7.385222 -3.015465 -11.815174 26.386366 -0.137220 12.500659 -5.790586 -0.980300 6.302500 -17.664700 22.443704 -6.865332 43.908548 2.367314 9.519162 0.143844 -4.846652 7.630762 11.419927 2.413596 1.748315 -20.862829 -16.586974 5.127299 10.373005 -8.608200 0.850000 5.722500 -6.127932 -0.266568 1.020695 -70.593206 4.209768 41.335119 8.875268 -21.501799 -1.897628 0.517231 0.673007 1.932124 7.235912 -15.255511 -1.863300 -7.125000 0.000000 0.000000 -14.000500 14.232000 10.451500 12.171961 0.481534 12.285440 -67.679158 81.565663 -105.579306 -156.321293 35.660110 -111.269633 0.128702 -2.520769 -24.372643 -12.867774 12.010589 -3.034300 7.125000 0.000000 0.000000 10.545000 -15.366700 7.503700 
